<?xml version="1.0" standalone="no"?>
<!DOCTYPE svg PUBLIC "-//W3C//DTD SVG 20010904//EN"
 "http://www.w3.org/TR/2001/REC-SVG-20010904/DTD/svg10.dtd">
<svg version="1.0" xmlns="http://www.w3.org/2000/svg"
 width="670.000000pt" height="634.000000pt" viewBox="0 0 670.000000 634.000000"
 preserveAspectRatio="xMidYMid meet">

<g transform="translate(0.000000,634.000000) scale(0.100000,-0.100000)"
fill="#000000" stroke="none">
<path d="M3120 6074 c-329 -23 -608 -87 -914 -210 -920 -369 -1595 -1182
-1791 -2157 -44 -219 -58 -393 -52 -652 6 -261 28 -430 82 -639 141 -549 409
-1014 806 -1401 480 -468 1078 -749 1754 -825 116 -13 494 -13 610 0 675 76
1275 358 1754 825 463 451 765 1038 862 1678 27 174 36 516 20 697 -84 917
-593 1749 -1369 2236 -366 230 -766 373 -1197 429 -117 15 -456 27 -565 19z
m279 -2204 c452 -57 751 -504 629 -943 -34 -125 -92 -221 -193 -323 -77 -78
-104 -98 -185 -138 -113 -55 -185 -74 -300 -82 -217 -14 -428 71 -583 236
-196 208 -255 494 -157 763 105 286 367 476 685 496 11 0 58 -4 104 -9z
m-1142 -1010 c136 -542 675 -895 1228 -805 421 68 774 393 878 805 l24 95 764
0 763 0 -2 -50 c-9 -157 -63 -419 -128 -615 -56 -170 -188 -439 -291 -595
-405 -611 -1021 -1015 -1739 -1142 -148 -26 -178 -28 -434 -28 -280 0 -339 5
-545 46 -503 101 -981 367 -1352 752 -337 351 -566 785 -668 1267 -26 126 -56
356 -46 365 2 3 346 4 764 3 l760 -3 24 -95z"/>
</g>
</svg>
